<svg id="Main" xmlns="http://www.w3.org/2000/svg" viewBox="0 0 58.18 58.18"><defs><style>.cls-1{fill:none;stroke:#fff;stroke-miterlimit:10;}</style></defs><title>facebook-icon</title><g id="Social"><path class="cls-1" d="M1630.18,695.88a10.74,10.74,0,0,1-10.72,10.72h-7.15V684h7.56l1.12-8.34h-8.67v-5.32a4.27,4.27,0,0,1,1-3.09,4.84,4.84,0,0,1,3.57-1.08l4.91,0V658.4q-3.57-.34-6.7-0.34a11.08,11.08,0,0,0-8.11,3q-3.05,3-3.05,8.39v6.18h-8.34V684H1604V706.6h-20.25A10.74,10.74,0,0,1,1573,695.88V660.15a10.74,10.74,0,0,1,10.72-10.72h35.73a10.74,10.74,0,0,1,10.72,10.72v35.73Z" transform="translate(-1572.5 -648.93)"/></g></svg>