<svg id="Main" xmlns="http://www.w3.org/2000/svg" viewBox="0 0 34.01 34.44"><defs><style>.cls-1{opacity:0.5;}.cls-2{fill:none;stroke:#fff;stroke-miterlimit:10;}</style></defs><title>logout-icon</title><g id="Logout_Button" data-name="Logout Button" class="cls-1"><path class="cls-2" d="M1890.74,1028.66l-5.4-5.4c-0.54-.54-2.4-0.54-2.4.58v12.36c0,1.13,1.86,1.13,2.4.58l5.4-5.4A2.5,2.5,0,0,0,1890.74,1028.66Z" transform="translate(-1857.64 -1015.04)"/><path class="cls-2" d="M1874.64,1015.54h-16.5v24.76l12.38,8.25v-4.13h4.13a4.13,4.13,0,0,0,4.13-4.13v-20.63A4.13,4.13,0,0,0,1874.64,1015.54Zm0,24.76h-4.13v-16.5l-6.19-4.13h10.31v20.63Z" transform="translate(-1857.64 -1015.04)"/></g></svg>