<svg id="Main" xmlns="http://www.w3.org/2000/svg" viewBox="0 0 34.68 34.01"><defs><style>.cls-1{opacity:0.5;}.cls-2{fill:none;stroke:#fff;stroke-miterlimit:10;}</style></defs><title>settings-icon</title><g id="Settings_Button" data-name="Settings Button" class="cls-1"><path class="cls-2" d="M1601.17,1027.55l-0.57-1.36c2-4.44,1.83-4.57,1.45-5l-2.51-2.45-0.25-.21H1599c-0.15,0-.61,0-4.43,1.73l-1.4-.57c-1.81-4.5-2-4.5-2.53-4.5h-3.54c-0.53,0-.74,0-2.42,4.51l-1.4.57a23.5,23.5,0,0,0-4.5-1.64h-0.33l-2.7,2.65c-0.41.39-.55,0.52,1.52,4.89l-0.57,1.36c-4.6,1.78-4.6,1.95-4.6,2.49v3.47c0,0.54,0,.74,4.61,2.39l0.57,1.35c-2,4.44-1.83,4.57-1.45,5l2.51,2.45,0.25,0.21h0.29c0.15,0,.6,0,4.42-1.73l1.4,0.57c1.81,4.5,2,4.5,2.53,4.5h3.54c0.54,0,.73,0,2.42-4.51l1.41-.57a23.59,23.59,0,0,0,4.49,1.64h0.34l2.72-2.66c0.39-.39.52-0.53-1.54-4.88l0.57-1.36c4.6-1.78,4.6-2,4.6-2.5v-3.47C1605.79,1029.39,1605.79,1029.2,1601.17,1027.55Zm-12.23,10a5.78,5.78,0,1,1,5.88-5.78A5.84,5.84,0,0,1,1588.94,1037.51Z" transform="translate(-1571.6 -1014.74)"/></g></svg>