<svg id="Main" xmlns="http://www.w3.org/2000/svg" viewBox="0 0 55.11 56.6"><defs><style>.cls-1{fill:none;stroke:#fff;stroke-miterlimit:10;}</style></defs><title>twitter-icon</title><g id="Social"><path class="cls-1" d="M1855.76,649.43h-36.07a9.17,9.17,0,0,0-9,9.27v37.06a9.17,9.17,0,0,0,9,9.27h36.07a9.17,9.17,0,0,0,9-9.27V658.69A9.17,9.17,0,0,0,1855.76,649.43Zm-0.06,28.64a18.09,18.09,0,0,1-5.6,9.61,22.79,22.79,0,0,1-13.74,6.25c-4.49.39-8.84,0.33-13.58-1.95a22.17,22.17,0,0,1-8.75-7.25,12.51,12.51,0,0,0,17.45-.79,3.09,3.09,0,0,1-2.86-.79,1.65,1.65,0,0,1-.36-2.11,4.43,4.43,0,0,1,1.57-1.33,4.41,4.41,0,0,1-3-.35c-1.17-.61-2.3-1.26-2.62-2.59a3.2,3.2,0,0,1,3.22-1.2,10.23,10.23,0,0,1-4.11-2.36,4.18,4.18,0,0,1-1.29-2.57,6.08,6.08,0,0,1,2.82-.41,7.13,7.13,0,0,1-3.75-4.6,3.7,3.7,0,0,1-.12-1.57c9.15,3.55,13.43,6.1,15.8,8.49,1.06-2.91,3.55-9.5,7.25-11.76a1.93,1.93,0,0,1-.4,1.16c1.1-.63,2-1.63,3.47-1.62a2.4,2.4,0,0,1-1.65,1.7,16.59,16.59,0,0,1,3-.91c1-.18.95,0.6,0.4,1a11.06,11.06,0,0,1-3.43,1.28c3.53,0.09,6.41,1.81,8.66,5.55a8.91,8.91,0,0,1,1.37,3.85,9.75,9.75,0,0,0,4.51.25,4.52,4.52,0,0,0,1.17-.33,4.56,4.56,0,0,1-2.22,2,9.11,9.11,0,0,1-2.82.66,12.11,12.11,0,0,0,5.28.54A6.67,6.67,0,0,1,1855.7,678.07Z" transform="translate(-1810.18 -648.93)"/></g></svg>