<svg id="Main" xmlns="http://www.w3.org/2000/svg" viewBox="0 0 59.72 64.69"><defs><style>.cls-1{fill:none;stroke:#fff;stroke-miterlimit:10;}</style></defs><title>audio-icon</title><g id="Controls"><g id="Categories"><g id="layer1"><g id="g4087"><line class="cls-1" x1="52.31" y1="14" x2="23.2" y2="19.93"/><polyline class="cls-1" points="16.29 21.34 16.29 9.37 16.34 9.36 59.22 0.61 59.22 2.05 59.22 12.59"/><line class="cls-1" x1="23.2" y1="53.95" x2="23.2" y2="19.93"/><polyline class="cls-1" points="16.29 46.76 16.29 21.34 16.29 9.37 16.29 9.36 16.34 9.36"/><path class="cls-1" d="M879.34,887.86V888h0C879.34,888,879.34,887.91,879.34,887.86Z" transform="translate(-856.14 -833.91)"/><path class="cls-1" d="M872.43,880.66a14.26,14.26,0,0,0-6.67.23c-6.15,1.65-10.13,6.72-8.89,11.33s7.22,7,13.36,5.36c5.36-1.44,9.08-5.49,9.11-9.56" transform="translate(-856.14 -833.91)"/><path class="cls-1" d="M879.34,887.86V888h0C879.34,888,879.34,887.91,879.34,887.86Z" transform="translate(-856.14 -833.91)"/><polyline class="cls-1" points="59.22 46.64 59.22 12.59 59.22 2.05"/><line class="cls-1" x1="52.31" y1="39.44" x2="52.31" y2="14"/><path class="cls-1" d="M915.36,880.55c0.07,4.13-3.68,8.27-9.11,9.72-6.15,1.65-12.13-.75-13.36-5.36s2.75-9.68,8.89-11.33a14.26,14.26,0,0,1,6.67-.23" transform="translate(-856.14 -833.91)"/></g></g></g></g></svg>