<svg id="Main" xmlns="http://www.w3.org/2000/svg" viewBox="0 0 86.45 64.16"><defs><style>.cls-1{fill:none;stroke:#fff;stroke-miterlimit:10;}</style></defs><title>image-icon</title><g id="Controls"><g id="Categories"><circle class="cls-1" cx="43.28" cy="37.18" r="13.31"/><path class="cls-1" d="M645.58,971.68h-22l-0.66-5.13a5.31,5.31,0,0,0-5.31-5.31H595a5.31,5.31,0,0,0-5.31,5.31L589,971.68H567.2a3.46,3.46,0,0,0-3.54,3.45v45.64a3.61,3.61,0,0,0,3.54,3.63h78.37a3.61,3.61,0,0,0,3.54-3.63V975.13A3.46,3.46,0,0,0,645.58,971.68Zm-39.17,48A21.76,21.76,0,1,1,628.17,998,21.76,21.76,0,0,1,606.41,1019.73ZM645,981.06H626.47v-5.48H645v5.48Z" transform="translate(-563.17 -960.75)"/></g></g></svg>