<svg id="Main" xmlns="http://www.w3.org/2000/svg" viewBox="0 0 56.54 56.54"><defs><style>.cls-1{fill:none;stroke:#fff;stroke-miterlimit:10;}</style></defs><title>instagram-icon</title><g id="Social"><g id="post-instagram"><path class="cls-1" d="M1782,650h-44.43a5.57,5.57,0,0,0-5.55,5.55V700a5.57,5.57,0,0,0,5.55,5.55H1782a5.57,5.57,0,0,0,5.55-5.55V655.55A5.57,5.57,0,0,0,1782,650Zm-22.22,16.66a11.11,11.11,0,1,1-11.11,11.11A11.14,11.14,0,0,1,1759.77,666.65ZM1738.94,700a1.31,1.31,0,0,1-1.39-1.39V675h5.83a9.45,9.45,0,0,0-.28,2.78,16.66,16.66,0,1,0,33.32,0,9.45,9.45,0,0,0-.28-2.78H1782v23.6a1.31,1.31,0,0,1-1.39,1.39h-41.65Zm43-37.49a1.31,1.31,0,0,1-1.39,1.39H1775a1.31,1.31,0,0,1-1.39-1.39v-5.55a1.31,1.31,0,0,1,1.39-1.39h5.55a1.31,1.31,0,0,1,1.39,1.39v5.55Z" transform="translate(-1731.5 -649.49)"/></g></g></svg>