<svg id="Main" xmlns="http://www.w3.org/2000/svg" viewBox="0 0 56.54 56.54"><defs><style>.cls-1{fill:none;stroke:#fff;stroke-miterlimit:10;}</style></defs><title>linkedin-icon</title><g id="Social"><path id="LinkedIn_alt_" data-name="LinkedIn (alt)" class="cls-1" d="M1704.76,650h-47.33a4,4,0,0,0-4.1,4v47.58a4,4,0,0,0,4.1,4h47.33a4,4,0,0,0,4.1-4V654A4,4,0,0,0,1704.76,650Zm-34.6,46.49h-8.39V671.41h8.39v25.07ZM1666,668h-0.06a4.33,4.33,0,0,1-4.64-4.33c0-2.46,1.88-4.33,4.75-4.33a4.35,4.35,0,0,1,4.69,4.33C1670.71,666.06,1668.89,668,1666,668Zm34.44,28.5H1692V683.07c0-3.37-1.22-5.67-4.25-5.67a4.58,4.58,0,0,0-4.3,3.05,5.6,5.6,0,0,0-.28,2v14h-8.39s0.11-22.72,0-25.07h8.39V675a8.33,8.33,0,0,1,7.56-4.14c5.52,0,9.66,3.58,9.66,11.29v14.38h0ZM1683.13,675l0.05-.08V675h-0.05Z" transform="translate(-1652.82 -649.49)"/></g></svg>