<svg id="Main" xmlns="http://www.w3.org/2000/svg" viewBox="0 0 75.43 61.74"><defs><style>.cls-1{fill:none;stroke:#fff;stroke-miterlimit:10;}</style></defs><title>text-icon</title><g id="Controls"><g id="Categories"><path id="newspaper-4-icon" class="cls-1" d="M1000.46,974.48c-9.5-5.18-24.12-7.86-37.22-8.51v52.27c13.3,0.64,25.42,3,37.22,8.39,11.79-5.43,23.91-7.75,37.21-8.39V966C1024.57,966.62,1010,969.3,1000.46,974.48Zm-5.8,39.68a79.38,79.38,0,0,0-21.65-4.85v-3.48c7.47,0.39,15.64,2.66,21.65,4.7v3.63Zm0-13A79.38,79.38,0,0,0,973,996.3v-3.48c7.47,0.4,15.64,2.67,21.65,4.7v3.63Zm0-12.83A80.12,80.12,0,0,0,973,983.47v-5.82c7.47,0.39,15.64,2.66,21.65,4.7v6Zm33.24,21a79.38,79.38,0,0,0-21.65,4.85v-3.63c6-2,14.18-4.31,21.65-4.7v3.48Zm0-13a79.38,79.38,0,0,0-21.65,4.85v-3.63c6-2,14.18-4.3,21.65-4.7v3.48Zm0-12.83a80.12,80.12,0,0,0-21.65,4.85v-6c6-2,14.18-4.31,21.65-4.7v5.82Z" transform="translate(-962.74 -965.44)"/></g></g></svg>