<svg id="Main" xmlns="http://www.w3.org/2000/svg" viewBox="0 0 73.66 64.58"><defs><style>.cls-1{fill:none;stroke:#fff;stroke-miterlimit:10;}</style></defs><title>video-icon</title><g id="Controls"><g id="Categories"><g id="_3" data-name="3"><path class="cls-1" d="M750.83,858.9L737.2,868a9,9,0,0,0-3.19-6.86,15.86,15.86,0,1,0-19.26-2.22h-8.33a13.63,13.63,0,1,0-19,1.16,9,9,0,0,0-4.73,7.92v18.17a9.08,9.08,0,0,0,9.08,9.08h36.33a9.08,9.08,0,0,0,9.08-9.08l13.62,9.08a4.54,4.54,0,0,0,4.54-4.54V863.44A4.54,4.54,0,0,0,750.83,858.9Zm-54.5,0a9.08,9.08,0,1,1,9.08-9.08A9.08,9.08,0,0,1,696.33,858.9Zm29.52,0a11.38,11.38,0,1,1,11.38-11.38A11.38,11.38,0,0,1,725.85,858.92Z" transform="translate(-682.21 -831.15)"/></g></g></g></svg>